<?xml version="1.0" standalone="no"?><!DOCTYPE svg PUBLIC "-//W3C//DTD SVG 1.1//EN" "http://www.w3.org/Graphics/SVG/1.1/DTD/svg11.dtd"><svg t="1532254689985" class="icon" style="" viewBox="0 0 1024 1024" version="1.1" xmlns="http://www.w3.org/2000/svg" p-id="2130" xmlns:xlink="http://www.w3.org/1999/xlink" width="200" height="200"><defs><style type="text/css"></style></defs><path d="M716.16 929.92c-17.92 0-32-14.08-32-32s14.08-32 32-32c24.96 0 47.36-16 51.2-37.12v-0.64l58.24-270.72 6.4-31.36c1.28-5.76-1.28-7.68-3.2-8.32-1.28-0.64-1.28-0.64-3.2 1.28L743.04 620.8c-20.48 25.6-51.84 37.76-83.84 32-32-5.76-58.88-29.44-69.12-62.08L513.92 357.76c-1.28-3.84-3.2-3.84-3.84-3.84-0.64 0-2.56 0-3.84 3.84L433.28 590.08c-10.24 32.64-37.12 56.96-69.12 62.72-32 5.76-63.36-6.4-84.48-32L199.04 519.68c-1.92-1.92-1.92-1.92-3.2-1.28-1.92 0.64-4.48 2.56-3.2 8.32l5.76 31.36 58.24 270.08v0.64c3.84 21.12 25.6 37.12 51.2 37.12h261.12c17.92 0 32 14.08 32 32s-14.08 32-32 32H307.84c-56.32 0-104.32-37.12-113.92-88.96l-58.24-270.08v-0.64l-5.76-32c-6.4-33.28 9.6-64.64 39.68-78.08 28.16-12.8 60.16-5.12 80 19.84l80.64 101.12c8.32 10.24 17.92 10.24 22.4 8.96 4.48-0.64 15.36-4.48 19.84-19.2l73.6-232.32c9.6-29.44 34.56-48.64 64.64-48.64h0.64c29.44 0 55.04 18.56 64.64 48l76.16 232.96c4.48 14.72 15.36 17.92 19.84 18.56 5.12 0.64 14.08 0.64 22.4-8.96l81.92-101.12c19.84-24.32 51.84-32 80-19.2 30.08 14.08 45.44 45.44 39.04 78.72l-6.4 32-58.24 270.72c-10.88 51.2-58.24 88.32-114.56 88.32z" fill="#d4237a" p-id="2131"></path><path d="M447.36 192a58.24 54.4 90 1 0 108.8 0 58.24 54.4 90 1 0-108.8 0Z" fill="#d4237a" p-id="2132"></path><path d="M831.36 380.16a58.24 54.4 90 1 0 108.8 0 58.24 54.4 90 1 0-108.8 0Z" fill="#d4237a" p-id="2133"></path><path d="M87.68 380.16a58.24 54.4 90 1 0 108.8 0 58.24 54.4 90 1 0-108.8 0Z" fill="#d4237a" p-id="2134"></path></svg>